# xmcd
#
# Track frame offsets:
#	179
#	16743
#	33199
#	42750
#	56862
#	69975
#	83515
#	94053
#	104743
#	121721
#
# Disc length: 1747 seconds
# Revision: 3
# Processed by: cddbd v1.5.2PL0 Copyright (c) Steve Scherf et al.
# Submitted via: dBpowerAMP V12.0
#
DISCID=7206d10a
DTITLE=Johnny Cash - Complete Columbia Album Collection, Disc 27 [Man in Black]
DYEAR=1971
DGENRE=Country
TTITLE0=The Preacher Said, "Jesus Said"
TTITLE1=Orphan of the Road
TTITLE2=You've Got a New Light Shining in Your Eyes
TTITLE3=If Not for Love
TTITLE4=Man in Black
TTITLE5=Singin' In Viet Nam Talkin' Blues
TTITLE6=Ned Kelly
TTITLE7=Look for Me
TTITLE8=Dear Mrs.
TTITLE9=I Talk to Jesus Every Day
EXTD=
EXTT0=
EXTT1=
EXTT2=
EXTT3=
EXTT4=
EXTT5=
EXTT6=
EXTT7=
EXTT8=
EXTT9=
PLAYORDER=
